<?xml version="1.0" encoding="UTF-8" standalone="no"?>
<!-- Created with Inkscape (http://www.inkscape.org/) -->

<svg
   xmlns:dc="http://purl.org/dc/elements/1.1/"
   xmlns:cc="http://creativecommons.org/ns#"
   xmlns:rdf="http://www.w3.org/1999/02/22-rdf-syntax-ns#"
   xmlns:svg="http://www.w3.org/2000/svg"
   xmlns="http://www.w3.org/2000/svg"
   xmlns:sodipodi="http://sodipodi.sourceforge.net/DTD/sodipodi-0.dtd"
   xmlns:inkscape="http://www.inkscape.org/namespaces/inkscape"
   width="72.248909mm"
   height="72.248894mm"
   viewBox="0 0 256.00007 256.00002"
   id="svg5332"
   version="1.1"
   inkscape:version="0.91 r13725"
   sodipodi:docname="cog3.svg">
  <title
     id="title5886">Cog 3</title>
  <defs
     id="defs5334" />
  <sodipodi:namedview
     id="base"
     pagecolor="#ffffff"
     bordercolor="#666666"
     borderopacity="1.0"
     inkscape:pageopacity="0.0"
     inkscape:pageshadow="2"
     inkscape:zoom="0.79707031"
     inkscape:cx="-290.53096"
     inkscape:cy="129.8525"
     inkscape:document-units="px"
     inkscape:current-layer="layer1"
     showgrid="false"
     fit-margin-top="0"
     fit-margin-left="0"
     fit-margin-right="0"
     fit-margin-bottom="0"
     inkscape:window-width="1918"
     inkscape:window-height="810"
     inkscape:window-x="1799"
     inkscape:window-y="206"
     inkscape:window-maximized="0" />
  <metadata
     id="metadata5337">
    <rdf:RDF>
      <cc:Work
         rdf:about="">
        <dc:format>image/svg+xml</dc:format>
        <dc:type
           rdf:resource="http://purl.org/dc/dcmitype/StillImage" />
        <dc:title>Cog 3</dc:title>
        <cc:license
           rdf:resource="http://creativecommons.org/publicdomain/zero/1.0/" />
        <dc:creator>
          <cc:Agent>
            <dc:title>Josh &quot;Cheeseness&quot; Bush</dc:title>
          </cc:Agent>
        </dc:creator>
        <dc:description>Originally created for the official shirt for the 2014 Open Source Developers' Conference held at Griffith University.</dc:description>
        <dc:subject>
          <rdf:Bag>
            <rdf:li>cog gear</rdf:li>
          </rdf:Bag>
        </dc:subject>
        <dc:date>2014-10-22</dc:date>
      </cc:Work>
      <cc:License
         rdf:about="http://creativecommons.org/publicdomain/zero/1.0/">
        <cc:permits
           rdf:resource="http://creativecommons.org/ns#Reproduction" />
        <cc:permits
           rdf:resource="http://creativecommons.org/ns#Distribution" />
        <cc:permits
           rdf:resource="http://creativecommons.org/ns#DerivativeWorks" />
      </cc:License>
    </rdf:RDF>
  </metadata>
  <g
     inkscape:label="Layer 1"
     inkscape:groupmode="layer"
     id="layer1"
     transform="translate(-362.5464,-406.21469)">
    <path
       style="color:#000000;clip-rule:nonzero;display:inline;overflow:visible;visibility:visible;color-interpolation:sRGB;color-interpolation-filters:linearRGB;fill:#808080;fill-opacity:1;fill-rule:nonzero;stroke:none;stroke-width:1px;marker:none;color-rendering:auto;image-rendering:auto;shape-rendering:auto;text-rendering:auto;enable-background:accumulate"
       d="m 460.59678,406.28098 c -1.2301,0.1082 -2.5991,0.35465 -4.1207,0.7634 -24.34586,6.52313 6.1076,28.31238 -15.72029,40.91503 -21.8278,12.60205 -25.4757,-24.66731 -43.29806,-6.84472 -17.82235,17.822 19.43511,21.47007 6.83284,43.29779 -12.60233,21.82772 -34.39141,-8.62518 -40.9148,15.71995 -6.52346,24.34573 27.57787,8.87764 27.57787,34.08233 0,25.2041 -34.10133,9.72399 -27.57787,34.06972 6.52339,24.34572 28.31247,-6.09575 40.9148,15.73197 12.60227,21.82832 -24.65519,25.46437 -6.83284,43.28636 17.82236,17.8226 21.47026,-19.43474 43.29806,-6.83269 21.82789,12.60265 -8.62557,34.3913 15.72029,40.91503 24.3457,6.52313 8.8656,-27.56642 34.0702,-27.56642 25.2046,0 9.7362,34.08955 34.082,27.56642 24.3457,-6.52373 -6.1076,-28.31238 15.7202,-40.91503 21.8278,-12.60205 25.4757,24.65529 43.2981,6.83269 17.8223,-17.82199 -19.4469,-21.45804 -6.8446,-43.28636 12.6023,-21.82772 34.3914,8.61375 40.9148,-15.73197 6.5234,-24.34573 -27.5661,-8.86562 -27.5661,-34.06972 0,-25.20469 34.0895,-9.7366 27.5661,-34.08233 -6.5234,-24.34513 -28.3125,6.10777 -40.9148,-15.71995 -12.6023,-21.82772 24.6669,-25.47579 6.8446,-43.29779 -17.8224,-17.82259 -21.4703,19.44677 -43.2981,6.84472 -21.8278,-12.60265 8.6255,-34.3919 -15.7202,-40.91503 -24.3458,-6.52373 -8.8774,27.56581 -34.082,27.56581 -23.6294,0 -11.497,-29.95879 -29.9495,-28.32921 z m 29.9499,49.7572 c 20.4683,-0.002 40.8115,8.42201 55.2858,22.89407 14.4743,14.47207 22.9012,34.81388 22.9016,55.28251 -4e-4,20.46804 -8.4274,40.80984 -22.9017,55.28191 -14.4743,14.47207 -34.8175,22.89648 -55.2857,22.89407 -20.4664,-6e-4 -40.80665,-8.42561 -55.27865,-22.89767 -14.472,-14.47207 -22.89745,-34.81207 -22.89787,-55.27831 3.6e-4,-20.46683 8.42581,-40.80683 22.89775,-55.2789 14.472,-14.47207 34.81227,-22.89708 55.27877,-22.89768 z"
       id="path4611-0"
       inkscape:connector-curvature="0"
       sodipodi:nodetypes="ccssssssscccscccsssssssssccscscscsc" />
  </g>
</svg>
