<svg width="587" height="587" viewBox="0 0 587 587" fill="none" xmlns="http://www.w3.org/2000/svg">
<rect x="121.198" y="120.521" width="2" height="10" rx="1" fill="#C4C4C4" fill-opacity="0.46"/>
<rect x="121.198" y="157.781" width="2" height="10" rx="1" fill="#C4C4C4" fill-opacity="0.46"/>
<rect x="121.198" y="195.042" width="2" height="10" rx="1" fill="#C4C4C4" fill-opacity="0.46"/>
<rect x="121.198" y="232.302" width="2" height="10" rx="1" fill="#C4C4C4" fill-opacity="0.46"/>
<rect x="121.198" y="269.563" width="2" height="10" rx="1" fill="#C4C4C4" fill-opacity="0.46"/>
<rect x="121.198" y="306.823" width="2" height="10" rx="1" fill="#C4C4C4" fill-opacity="0.46"/>
<rect x="121.198" y="344.083" width="2" height="10" rx="1" fill="#C4C4C4" fill-opacity="0.46"/>
<rect x="121.198" y="381.344" width="2" height="10" rx="1" fill="#C4C4C4" fill-opacity="0.46"/>
<rect x="121.198" y="418.604" width="2" height="10" rx="1" fill="#C4C4C4" fill-opacity="0.46"/>
<rect x="121.198" y="455.865" width="2" height="10" rx="1" fill="#C4C4C4" fill-opacity="0.46"/>
<rect x="307.5" y="120.521" width="2" height="10" rx="1" fill="#C4C4C4" fill-opacity="0.46"/>
<rect x="307.5" y="157.781" width="2" height="10" rx="1" fill="#C4C4C4" fill-opacity="0.46"/>
<rect x="307.5" y="195.042" width="2" height="10" rx="1" fill="#C4C4C4" fill-opacity="0.46"/>
<rect x="307.5" y="232.302" width="2" height="10" rx="1" fill="#C4C4C4" fill-opacity="0.46"/>
<rect x="307.5" y="269.563" width="2" height="10" rx="1" fill="#C4C4C4" fill-opacity="0.46"/>
<rect x="307.5" y="306.823" width="2" height="10" rx="1" fill="#C4C4C4" fill-opacity="0.46"/>
<rect x="307.5" y="344.083" width="2" height="10" rx="1" fill="#C4C4C4" fill-opacity="0.46"/>
<rect x="307.5" y="381.344" width="2" height="10" rx="1" fill="#C4C4C4" fill-opacity="0.46"/>
<rect x="307.5" y="418.604" width="2" height="10" rx="1" fill="#C4C4C4" fill-opacity="0.46"/>
<rect x="307.5" y="455.865" width="2" height="10" rx="1" fill="#C4C4C4" fill-opacity="0.46"/>
<rect x="158.458" y="120.521" width="2" height="10" rx="1" fill="#C4C4C4" fill-opacity="0.46"/>
<rect x="158.458" y="157.781" width="2" height="10" rx="1" fill="#C4C4C4" fill-opacity="0.46"/>
<rect x="158.458" y="195.042" width="2" height="10" rx="1" fill="#C4C4C4" fill-opacity="0.46"/>
<rect x="158.458" y="232.302" width="2" height="10" rx="1" fill="#C4C4C4" fill-opacity="0.46"/>
<rect x="158.458" y="269.563" width="2" height="10" rx="1" fill="#C4C4C4" fill-opacity="0.46"/>
<rect x="158.458" y="306.823" width="2" height="10" rx="1" fill="#C4C4C4" fill-opacity="0.46"/>
<rect x="158.458" y="344.083" width="2" height="10" rx="1" fill="#C4C4C4" fill-opacity="0.46"/>
<rect x="158.458" y="381.344" width="2" height="10" rx="1" fill="#C4C4C4" fill-opacity="0.46"/>
<rect x="158.458" y="418.604" width="2" height="10" rx="1" fill="#C4C4C4" fill-opacity="0.46"/>
<rect x="158.458" y="455.865" width="2" height="10" rx="1" fill="#C4C4C4" fill-opacity="0.46"/>
<rect x="344.76" y="120.521" width="2" height="10" rx="1" fill="#C4C4C4" fill-opacity="0.46"/>
<rect x="344.76" y="157.781" width="2" height="10" rx="1" fill="#C4C4C4" fill-opacity="0.46"/>
<rect x="344.76" y="195.042" width="2" height="10" rx="1" fill="#C4C4C4" fill-opacity="0.46"/>
<rect x="344.76" y="232.302" width="2" height="10" rx="1" fill="#C4C4C4" fill-opacity="0.46"/>
<rect x="344.76" y="269.563" width="2" height="10" rx="1" fill="#C4C4C4" fill-opacity="0.46"/>
<rect x="344.76" y="306.823" width="2" height="10" rx="1" fill="#C4C4C4" fill-opacity="0.46"/>
<rect x="344.76" y="344.083" width="2" height="10" rx="1" fill="#C4C4C4" fill-opacity="0.46"/>
<rect x="344.76" y="381.344" width="2" height="10" rx="1" fill="#C4C4C4" fill-opacity="0.46"/>
<rect x="344.76" y="418.604" width="2" height="10" rx="1" fill="#C4C4C4" fill-opacity="0.46"/>
<rect x="344.76" y="455.865" width="2" height="10" rx="1" fill="#C4C4C4" fill-opacity="0.46"/>
<rect x="195.719" y="120.521" width="2" height="10" rx="1" fill="#C4C4C4" fill-opacity="0.46"/>
<rect x="195.719" y="157.781" width="2" height="10" rx="1" fill="#C4C4C4" fill-opacity="0.46"/>
<rect x="195.719" y="195.042" width="2" height="10" rx="1" fill="#C4C4C4" fill-opacity="0.46"/>
<rect x="195.719" y="232.302" width="2" height="10" rx="1" fill="#C4C4C4" fill-opacity="0.46"/>
<rect x="195.719" y="269.563" width="2" height="10" rx="1" fill="#C4C4C4" fill-opacity="0.46"/>
<rect x="195.719" y="306.823" width="2" height="10" rx="1" fill="#C4C4C4" fill-opacity="0.46"/>
<rect x="195.719" y="344.083" width="2" height="10" rx="1" fill="#C4C4C4" fill-opacity="0.46"/>
<rect x="195.719" y="381.344" width="2" height="10" rx="1" fill="#C4C4C4" fill-opacity="0.46"/>
<rect x="195.719" y="418.604" width="2" height="10" rx="1" fill="#C4C4C4" fill-opacity="0.46"/>
<rect x="195.719" y="455.865" width="2" height="10" rx="1" fill="#C4C4C4" fill-opacity="0.46"/>
<rect x="382.021" y="120.521" width="2" height="10" rx="1" fill="#C4C4C4" fill-opacity="0.46"/>
<rect x="382.021" y="157.781" width="2" height="10" rx="1" fill="#C4C4C4" fill-opacity="0.46"/>
<rect x="382.021" y="195.042" width="2" height="10" rx="1" fill="#C4C4C4" fill-opacity="0.46"/>
<rect x="382.021" y="232.302" width="2" height="10" rx="1" fill="#C4C4C4" fill-opacity="0.46"/>
<rect x="382.021" y="269.563" width="2" height="10" rx="1" fill="#C4C4C4" fill-opacity="0.46"/>
<rect x="382.021" y="306.823" width="2" height="10" rx="1" fill="#C4C4C4" fill-opacity="0.46"/>
<rect x="382.021" y="344.083" width="2" height="10" rx="1" fill="#C4C4C4" fill-opacity="0.46"/>
<rect x="382.021" y="381.344" width="2" height="10" rx="1" fill="#C4C4C4" fill-opacity="0.46"/>
<rect x="382.021" y="418.604" width="2" height="10" rx="1" fill="#C4C4C4" fill-opacity="0.46"/>
<rect x="382.021" y="455.865" width="2" height="10" rx="1" fill="#C4C4C4" fill-opacity="0.46"/>
<rect x="232.979" y="120.521" width="2" height="10" rx="1" fill="#C4C4C4" fill-opacity="0.46"/>
<rect x="232.979" y="157.781" width="2" height="10" rx="1" fill="#C4C4C4" fill-opacity="0.46"/>
<rect x="232.979" y="195.042" width="2" height="10" rx="1" fill="#C4C4C4" fill-opacity="0.46"/>
<rect x="232.979" y="232.302" width="2" height="10" rx="1" fill="#C4C4C4" fill-opacity="0.46"/>
<rect x="232.979" y="269.563" width="2" height="10" rx="1" fill="#C4C4C4" fill-opacity="0.46"/>
<rect x="232.979" y="306.823" width="2" height="10" rx="1" fill="#C4C4C4" fill-opacity="0.46"/>
<rect x="232.979" y="344.083" width="2" height="10" rx="1" fill="#C4C4C4" fill-opacity="0.46"/>
<rect x="232.979" y="381.344" width="2" height="10" rx="1" fill="#C4C4C4" fill-opacity="0.46"/>
<rect x="232.979" y="418.604" width="2" height="10" rx="1" fill="#C4C4C4" fill-opacity="0.46"/>
<rect x="232.979" y="455.865" width="2" height="10" rx="1" fill="#C4C4C4" fill-opacity="0.46"/>
<rect x="419.281" y="120.521" width="2" height="10" rx="1" fill="#C4C4C4" fill-opacity="0.46"/>
<rect x="419.281" y="157.781" width="2" height="10" rx="1" fill="#C4C4C4" fill-opacity="0.46"/>
<rect x="419.281" y="195.042" width="2" height="10" rx="1" fill="#C4C4C4" fill-opacity="0.46"/>
<rect x="419.281" y="232.302" width="2" height="10" rx="1" fill="#C4C4C4" fill-opacity="0.46"/>
<rect x="419.281" y="269.563" width="2" height="10" rx="1" fill="#C4C4C4" fill-opacity="0.46"/>
<rect x="419.281" y="306.823" width="2" height="10" rx="1" fill="#C4C4C4" fill-opacity="0.46"/>
<rect x="419.281" y="344.083" width="2" height="10" rx="1" fill="#C4C4C4" fill-opacity="0.46"/>
<rect x="419.281" y="381.344" width="2" height="10" rx="1" fill="#C4C4C4" fill-opacity="0.46"/>
<rect x="419.281" y="418.604" width="2" height="10" rx="1" fill="#C4C4C4" fill-opacity="0.46"/>
<rect x="419.281" y="455.865" width="2" height="10" rx="1" fill="#C4C4C4" fill-opacity="0.46"/>
<rect x="270.24" y="120.521" width="2" height="10" rx="1" fill="#C4C4C4" fill-opacity="0.46"/>
<rect x="270.24" y="157.781" width="2" height="10" rx="1" fill="#C4C4C4" fill-opacity="0.46"/>
<rect x="270.24" y="195.042" width="2" height="10" rx="1" fill="#C4C4C4" fill-opacity="0.46"/>
<rect x="270.24" y="232.302" width="2" height="10" rx="1" fill="#C4C4C4" fill-opacity="0.46"/>
<rect x="270.24" y="269.563" width="2" height="10" rx="1" fill="#C4C4C4" fill-opacity="0.46"/>
<rect x="270.24" y="306.823" width="2" height="10" rx="1" fill="#C4C4C4" fill-opacity="0.46"/>
<rect x="270.24" y="344.083" width="2" height="10" rx="1" fill="#C4C4C4" fill-opacity="0.46"/>
<rect x="270.24" y="381.344" width="2" height="10" rx="1" fill="#C4C4C4" fill-opacity="0.46"/>
<rect x="270.24" y="418.604" width="2" height="10" rx="1" fill="#C4C4C4" fill-opacity="0.46"/>
<rect x="270.24" y="455.865" width="2" height="10" rx="1" fill="#C4C4C4" fill-opacity="0.46"/>
<rect x="456.542" y="120.521" width="2" height="10" rx="1" fill="#C4C4C4" fill-opacity="0.46"/>
<rect x="456.542" y="157.781" width="2" height="10" rx="1" fill="#C4C4C4" fill-opacity="0.46"/>
<rect x="456.542" y="195.042" width="2" height="10" rx="1" fill="#C4C4C4" fill-opacity="0.46"/>
<rect x="456.542" y="232.302" width="2" height="10" rx="1" fill="#C4C4C4" fill-opacity="0.46"/>
<rect x="456.542" y="269.563" width="2" height="10" rx="1" fill="#C4C4C4" fill-opacity="0.46"/>
<rect x="456.542" y="306.823" width="2" height="10" rx="1" fill="#C4C4C4" fill-opacity="0.46"/>
<rect x="456.542" y="344.083" width="2" height="10" rx="1" fill="#C4C4C4" fill-opacity="0.46"/>
<rect x="456.542" y="381.344" width="2" height="10" rx="1" fill="#C4C4C4" fill-opacity="0.46"/>
<rect x="456.542" y="418.604" width="2" height="10" rx="1" fill="#C4C4C4" fill-opacity="0.46"/>
<rect x="456.542" y="455.865" width="2" height="10" rx="1" fill="#C4C4C4" fill-opacity="0.46"/>
<rect x="234.271" y="240.271" width="106.458" height="106.458" rx="53.2292" fill="#222222"/>
<rect x="75.2604" y="75.2604" width="436.479" height="436.479" rx="218.24" stroke="#222222" stroke-width="74.5208"/>
<rect x="0.5" y="0.5" width="586" height="586" rx="293" stroke="#C4C4C4" stroke-opacity="0.46"/>
</svg>
