<svg width="346" height="114" viewBox="0 0 346 114" fill="none" xmlns="http://www.w3.org/2000/svg">
<rect width="2" height="10" rx="1" transform="matrix(0 -1 -1 0 345.344 113.781)" fill="#C4C4C4" fill-opacity="0.46"/>
<rect width="2" height="10" rx="1" transform="matrix(0 -1 -1 0 308.083 113.781)" fill="#C4C4C4" fill-opacity="0.46"/>
<rect width="2" height="10" rx="1" transform="matrix(0 -1 -1 0 270.823 113.781)" fill="#C4C4C4" fill-opacity="0.46"/>
<rect width="2" height="10" rx="1" transform="matrix(0 -1 -1 0 233.562 113.781)" fill="#C4C4C4" fill-opacity="0.46"/>
<rect width="2" height="10" rx="1" transform="matrix(0 -1 -1 0 196.302 113.781)" fill="#C4C4C4" fill-opacity="0.46"/>
<rect width="2" height="10" rx="1" transform="matrix(0 -1 -1 0 159.042 113.781)" fill="#C4C4C4" fill-opacity="0.46"/>
<rect width="2" height="10" rx="1" transform="matrix(0 -1 -1 0 121.781 113.781)" fill="#C4C4C4" fill-opacity="0.46"/>
<rect width="2" height="10" rx="1" transform="matrix(0 -1 -1 0 84.521 113.781)" fill="#C4C4C4" fill-opacity="0.46"/>
<rect width="2" height="10" rx="1" transform="matrix(0 -1 -1 0 47.2605 113.781)" fill="#C4C4C4" fill-opacity="0.46"/>
<rect width="2" height="10" rx="1" transform="matrix(0 -1 -1 0 10 113.781)" fill="#C4C4C4" fill-opacity="0.46"/>
<rect width="2" height="10" rx="1" transform="matrix(0 -1 -1 0 345.344 76.5208)" fill="#C4C4C4" fill-opacity="0.46"/>
<rect width="2" height="10" rx="1" transform="matrix(0 -1 -1 0 308.083 76.5208)" fill="#C4C4C4" fill-opacity="0.46"/>
<rect width="2" height="10" rx="1" transform="matrix(0 -1 -1 0 270.823 76.5208)" fill="#C4C4C4" fill-opacity="0.46"/>
<rect width="2" height="10" rx="1" transform="matrix(0 -1 -1 0 233.562 76.5208)" fill="#C4C4C4" fill-opacity="0.46"/>
<rect width="2" height="10" rx="1" transform="matrix(0 -1 -1 0 196.302 76.5208)" fill="#C4C4C4" fill-opacity="0.46"/>
<rect width="2" height="10" rx="1" transform="matrix(0 -1 -1 0 159.042 76.5208)" fill="#C4C4C4" fill-opacity="0.46"/>
<rect width="2" height="10" rx="1" transform="matrix(0 -1 -1 0 121.781 76.5208)" fill="#C4C4C4" fill-opacity="0.46"/>
<rect width="2" height="10" rx="1" transform="matrix(0 -1 -1 0 84.521 76.5208)" fill="#C4C4C4" fill-opacity="0.46"/>
<rect width="2" height="10" rx="1" transform="matrix(0 -1 -1 0 47.2605 76.5208)" fill="#C4C4C4" fill-opacity="0.46"/>
<rect width="2" height="10" rx="1" transform="matrix(0 -1 -1 0 10 76.5208)" fill="#C4C4C4" fill-opacity="0.46"/>
<rect width="2" height="10" rx="1" transform="matrix(0 -1 -1 0 345.344 39.2604)" fill="#C4C4C4" fill-opacity="0.46"/>
<rect width="2" height="10" rx="1" transform="matrix(0 -1 -1 0 308.083 39.2604)" fill="#C4C4C4" fill-opacity="0.46"/>
<rect width="2" height="10" rx="1" transform="matrix(0 -1 -1 0 270.823 39.2604)" fill="#C4C4C4" fill-opacity="0.46"/>
<rect width="2" height="10" rx="1" transform="matrix(0 -1 -1 0 233.562 39.2604)" fill="#C4C4C4" fill-opacity="0.46"/>
<rect width="2" height="10" rx="1" transform="matrix(0 -1 -1 0 196.302 39.2604)" fill="#C4C4C4" fill-opacity="0.46"/>
<rect width="2" height="10" rx="1" transform="matrix(0 -1 -1 0 159.042 39.2604)" fill="#C4C4C4" fill-opacity="0.46"/>
<rect width="2" height="10" rx="1" transform="matrix(0 -1 -1 0 121.781 39.2604)" fill="#C4C4C4" fill-opacity="0.46"/>
<rect width="2" height="10" rx="1" transform="matrix(0 -1 -1 0 84.521 39.2604)" fill="#C4C4C4" fill-opacity="0.46"/>
<rect width="2" height="10" rx="1" transform="matrix(0 -1 -1 0 47.2605 39.2604)" fill="#C4C4C4" fill-opacity="0.46"/>
<rect width="2" height="10" rx="1" transform="matrix(0 -1 -1 0 10 39.2604)" fill="#C4C4C4" fill-opacity="0.46"/>
<rect width="2" height="10" rx="1" transform="matrix(0 -1 -1 0 345.344 2)" fill="#C4C4C4" fill-opacity="0.46"/>
<rect width="2" height="10" rx="1" transform="matrix(0 -1 -1 0 308.083 2)" fill="#C4C4C4" fill-opacity="0.46"/>
<rect width="2" height="10" rx="1" transform="matrix(0 -1 -1 0 270.823 2)" fill="#C4C4C4" fill-opacity="0.46"/>
<rect width="2" height="10" rx="1" transform="matrix(0 -1 -1 0 233.562 2)" fill="#C4C4C4" fill-opacity="0.46"/>
<rect width="2" height="10" rx="1" transform="matrix(0 -1 -1 0 196.302 2)" fill="#C4C4C4" fill-opacity="0.46"/>
<rect width="2" height="10" rx="1" transform="matrix(0 -1 -1 0 159.042 2)" fill="#C4C4C4" fill-opacity="0.46"/>
<rect width="2" height="10" rx="1" transform="matrix(0 -1 -1 0 121.781 2)" fill="#C4C4C4" fill-opacity="0.46"/>
<rect width="2" height="10" rx="1" transform="matrix(0 -1 -1 0 84.521 2)" fill="#C4C4C4" fill-opacity="0.46"/>
<rect width="2" height="10" rx="1" transform="matrix(0 -1 -1 0 47.2605 2)" fill="#C4C4C4" fill-opacity="0.46"/>
<rect width="2" height="10" rx="1" transform="matrix(0 -1 -1 0 10 2)" fill="#C4C4C4" fill-opacity="0.46"/>
</svg>
