<svg width="295" height="233" viewBox="0 0 295 233" fill="none" xmlns="http://www.w3.org/2000/svg">
<mask id="mask0" mask-type="alpha" maskUnits="userSpaceOnUse" x="1" y="1" width="318" height="477">
<path d="M8.946 6.096H5.526V9.426H4.716V6.096H1.296V5.322H4.716V1.974H5.526V5.322H8.946V6.096ZM37.1216 6.096H33.7016V9.426H32.8916V6.096H29.4716V5.322H32.8916V1.974H33.7016V5.322H37.1216V6.096ZM65.2972 6.096H61.8772V9.426H61.0673V6.096H57.6472V5.322H61.0673V1.974H61.8772V5.322H65.2972V6.096ZM93.4729 6.096H90.0529V9.426H89.2429V6.096H85.8229V5.322H89.2429V1.974H90.0529V5.322H93.4729V6.096ZM121.648 6.096H118.228V9.426H117.418V6.096H113.998V5.322H117.418V1.974H118.228V5.322H121.648V6.096ZM149.824 6.096H146.404V9.426H145.594V6.096H142.174V5.322H145.594V1.974H146.404V5.322H149.824V6.096ZM178 6.096H174.58V9.426H173.77V6.096H170.35V5.322H173.77V1.974H174.58V5.322H178V6.096ZM206.175 6.096H202.755V9.426H201.945V6.096H198.525V5.322H201.945V1.974H202.755V5.322H206.175V6.096ZM234.351 6.096H230.931V9.426H230.121V6.096H226.701V5.322H230.121V1.974H230.931V5.322H234.351V6.096ZM262.527 6.096H259.107V9.426H258.297V6.096H254.877V5.322H258.297V1.974H259.107V5.322H262.527V6.096ZM290.702 6.096H287.282V9.426H286.472V6.096H283.052V5.322H286.472V1.974H287.282V5.322H290.702V6.096ZM318.878 6.096H315.458V9.426H314.648V6.096H311.228V5.322H314.648V1.974H315.458V5.322H318.878V6.096ZM8.946 18.096H5.526V21.426H4.716V18.096H1.296V17.322H4.716V13.974H5.526V17.322H8.946V18.096ZM37.1216 18.096H33.7016V21.426H32.8916V18.096H29.4716V17.322H32.8916V13.974H33.7016V17.322H37.1216V18.096ZM65.2972 18.096H61.8772V21.426H61.0673V18.096H57.6472V17.322H61.0673V13.974H61.8772V17.322H65.2972V18.096ZM93.4729 18.096H90.0529V21.426H89.2429V18.096H85.8229V17.322H89.2429V13.974H90.0529V17.322H93.4729V18.096ZM121.648 18.096H118.228V21.426H117.418V18.096H113.998V17.322H117.418V13.974H118.228V17.322H121.648V18.096ZM149.824 18.096H146.404V21.426H145.594V18.096H142.174V17.322H145.594V13.974H146.404V17.322H149.824V18.096ZM178 18.096H174.58V21.426H173.77V18.096H170.35V17.322H173.77V13.974H174.58V17.322H178V18.096ZM206.175 18.096H202.755V21.426H201.945V18.096H198.525V17.322H201.945V13.974H202.755V17.322H206.175V18.096ZM234.351 18.096H230.931V21.426H230.121V18.096H226.701V17.322H230.121V13.974H230.931V17.322H234.351V18.096ZM262.527 18.096H259.107V21.426H258.297V18.096H254.877V17.322H258.297V13.974H259.107V17.322H262.527V18.096ZM290.702 18.096H287.282V21.426H286.472V18.096H283.052V17.322H286.472V13.974H287.282V17.322H290.702V18.096ZM318.878 18.096H315.458V21.426H314.648V18.096H311.228V17.322H314.648V13.974H315.458V17.322H318.878V18.096ZM8.946 30.096H5.526V33.426H4.716V30.096H1.296V29.322H4.716V25.974H5.526V29.322H8.946V30.096ZM37.1216 30.096H33.7016V33.426H32.8916V30.096H29.4716V29.322H32.8916V25.974H33.7016V29.322H37.1216V30.096ZM65.2972 30.096H61.8772V33.426H61.0673V30.096H57.6472V29.322H61.0673V25.974H61.8772V29.322H65.2972V30.096ZM93.4729 30.096H90.0529V33.426H89.2429V30.096H85.8229V29.322H89.2429V25.974H90.0529V29.322H93.4729V30.096ZM121.648 30.096H118.228V33.426H117.418V30.096H113.998V29.322H117.418V25.974H118.228V29.322H121.648V30.096ZM149.824 30.096H146.404V33.426H145.594V30.096H142.174V29.322H145.594V25.974H146.404V29.322H149.824V30.096ZM178 30.096H174.58V33.426H173.77V30.096H170.35V29.322H173.77V25.974H174.58V29.322H178V30.096ZM206.175 30.096H202.755V33.426H201.945V30.096H198.525V29.322H201.945V25.974H202.755V29.322H206.175V30.096ZM234.351 30.096H230.931V33.426H230.121V30.096H226.701V29.322H230.121V25.974H230.931V29.322H234.351V30.096ZM262.527 30.096H259.107V33.426H258.297V30.096H254.877V29.322H258.297V25.974H259.107V29.322H262.527V30.096ZM290.702 30.096H287.282V33.426H286.472V30.096H283.052V29.322H286.472V25.974H287.282V29.322H290.702V30.096ZM318.878 30.096H315.458V33.426H314.648V30.096H311.228V29.322H314.648V25.974H315.458V29.322H318.878V30.096ZM8.946 42.096H5.526V45.426H4.716V42.096H1.296V41.322H4.716V37.974H5.526V41.322H8.946V42.096ZM37.1216 42.096H33.7016V45.426H32.8916V42.096H29.4716V41.322H32.8916V37.974H33.7016V41.322H37.1216V42.096ZM65.2972 42.096H61.8772V45.426H61.0673V42.096H57.6472V41.322H61.0673V37.974H61.8772V41.322H65.2972V42.096ZM93.4729 42.096H90.0529V45.426H89.2429V42.096H85.8229V41.322H89.2429V37.974H90.0529V41.322H93.4729V42.096ZM121.648 42.096H118.228V45.426H117.418V42.096H113.998V41.322H117.418V37.974H118.228V41.322H121.648V42.096ZM149.824 42.096H146.404V45.426H145.594V42.096H142.174V41.322H145.594V37.974H146.404V41.322H149.824V42.096ZM178 42.096H174.58V45.426H173.77V42.096H170.35V41.322H173.77V37.974H174.58V41.322H178V42.096ZM206.175 42.096H202.755V45.426H201.945V42.096H198.525V41.322H201.945V37.974H202.755V41.322H206.175V42.096ZM234.351 42.096H230.931V45.426H230.121V42.096H226.701V41.322H230.121V37.974H230.931V41.322H234.351V42.096ZM262.527 42.096H259.107V45.426H258.297V42.096H254.877V41.322H258.297V37.974H259.107V41.322H262.527V42.096ZM290.702 42.096H287.282V45.426H286.472V42.096H283.052V41.322H286.472V37.974H287.282V41.322H290.702V42.096ZM318.878 42.096H315.458V45.426H314.648V42.096H311.228V41.322H314.648V37.974H315.458V41.322H318.878V42.096ZM8.946 54.096H5.526V57.426H4.716V54.096H1.296V53.322H4.716V49.974H5.526V53.322H8.946V54.096ZM37.1216 54.096H33.7016V57.426H32.8916V54.096H29.4716V53.322H32.8916V49.974H33.7016V53.322H37.1216V54.096ZM65.2972 54.096H61.8772V57.426H61.0673V54.096H57.6472V53.322H61.0673V49.974H61.8772V53.322H65.2972V54.096ZM93.4729 54.096H90.0529V57.426H89.2429V54.096H85.8229V53.322H89.2429V49.974H90.0529V53.322H93.4729V54.096ZM121.648 54.096H118.228V57.426H117.418V54.096H113.998V53.322H117.418V49.974H118.228V53.322H121.648V54.096ZM149.824 54.096H146.404V57.426H145.594V54.096H142.174V53.322H145.594V49.974H146.404V53.322H149.824V54.096ZM178 54.096H174.58V57.426H173.77V54.096H170.35V53.322H173.77V49.974H174.58V53.322H178V54.096ZM206.175 54.096H202.755V57.426H201.945V54.096H198.525V53.322H201.945V49.974H202.755V53.322H206.175V54.096ZM234.351 54.096H230.931V57.426H230.121V54.096H226.701V53.322H230.121V49.974H230.931V53.322H234.351V54.096ZM262.527 54.096H259.107V57.426H258.297V54.096H254.877V53.322H258.297V49.974H259.107V53.322H262.527V54.096ZM290.702 54.096H287.282V57.426H286.472V54.096H283.052V53.322H286.472V49.974H287.282V53.322H290.702V54.096ZM318.878 54.096H315.458V57.426H314.648V54.096H311.228V53.322H314.648V49.974H315.458V53.322H318.878V54.096ZM8.946 66.096H5.526V69.426H4.716V66.096H1.296V65.322H4.716V61.974H5.526V65.322H8.946V66.096ZM37.1216 66.096H33.7016V69.426H32.8916V66.096H29.4716V65.322H32.8916V61.974H33.7016V65.322H37.1216V66.096ZM65.2972 66.096H61.8772V69.426H61.0673V66.096H57.6472V65.322H61.0673V61.974H61.8772V65.322H65.2972V66.096ZM93.4729 66.096H90.0529V69.426H89.2429V66.096H85.8229V65.322H89.2429V61.974H90.0529V65.322H93.4729V66.096ZM121.648 66.096H118.228V69.426H117.418V66.096H113.998V65.322H117.418V61.974H118.228V65.322H121.648V66.096ZM149.824 66.096H146.404V69.426H145.594V66.096H142.174V65.322H145.594V61.974H146.404V65.322H149.824V66.096ZM178 66.096H174.58V69.426H173.77V66.096H170.35V65.322H173.77V61.974H174.58V65.322H178V66.096ZM206.175 66.096H202.755V69.426H201.945V66.096H198.525V65.322H201.945V61.974H202.755V65.322H206.175V66.096ZM234.351 66.096H230.931V69.426H230.121V66.096H226.701V65.322H230.121V61.974H230.931V65.322H234.351V66.096ZM262.527 66.096H259.107V69.426H258.297V66.096H254.877V65.322H258.297V61.974H259.107V65.322H262.527V66.096ZM290.702 66.096H287.282V69.426H286.472V66.096H283.052V65.322H286.472V61.974H287.282V65.322H290.702V66.096ZM318.878 66.096H315.458V69.426H314.648V66.096H311.228V65.322H314.648V61.974H315.458V65.322H318.878V66.096ZM8.946 78.096H5.526V81.426H4.716V78.096H1.296V77.322H4.716V73.974H5.526V77.322H8.946V78.096ZM37.1216 78.096H33.7016V81.426H32.8916V78.096H29.4716V77.322H32.8916V73.974H33.7016V77.322H37.1216V78.096ZM65.2972 78.096H61.8772V81.426H61.0673V78.096H57.6472V77.322H61.0673V73.974H61.8772V77.322H65.2972V78.096ZM93.4729 78.096H90.0529V81.426H89.2429V78.096H85.8229V77.322H89.2429V73.974H90.0529V77.322H93.4729V78.096ZM121.648 78.096H118.228V81.426H117.418V78.096H113.998V77.322H117.418V73.974H118.228V77.322H121.648V78.096ZM149.824 78.096H146.404V81.426H145.594V78.096H142.174V77.322H145.594V73.974H146.404V77.322H149.824V78.096ZM178 78.096H174.58V81.426H173.77V78.096H170.35V77.322H173.77V73.974H174.58V77.322H178V78.096ZM206.175 78.096H202.755V81.426H201.945V78.096H198.525V77.322H201.945V73.974H202.755V77.322H206.175V78.096ZM234.351 78.096H230.931V81.426H230.121V78.096H226.701V77.322H230.121V73.974H230.931V77.322H234.351V78.096ZM262.527 78.096H259.107V81.426H258.297V78.096H254.877V77.322H258.297V73.974H259.107V77.322H262.527V78.096ZM290.702 78.096H287.282V81.426H286.472V78.096H283.052V77.322H286.472V73.974H287.282V77.322H290.702V78.096ZM318.878 78.096H315.458V81.426H314.648V78.096H311.228V77.322H314.648V73.974H315.458V77.322H318.878V78.096ZM8.946 90.096H5.526V93.426H4.716V90.096H1.296V89.322H4.716V85.974H5.526V89.322H8.946V90.096ZM37.1216 90.096H33.7016V93.426H32.8916V90.096H29.4716V89.322H32.8916V85.974H33.7016V89.322H37.1216V90.096ZM65.2972 90.096H61.8772V93.426H61.0673V90.096H57.6472V89.322H61.0673V85.974H61.8772V89.322H65.2972V90.096ZM93.4729 90.096H90.0529V93.426H89.2429V90.096H85.8229V89.322H89.2429V85.974H90.0529V89.322H93.4729V90.096ZM121.648 90.096H118.228V93.426H117.418V90.096H113.998V89.322H117.418V85.974H118.228V89.322H121.648V90.096ZM149.824 90.096H146.404V93.426H145.594V90.096H142.174V89.322H145.594V85.974H146.404V89.322H149.824V90.096ZM178 90.096H174.58V93.426H173.77V90.096H170.35V89.322H173.77V85.974H174.58V89.322H178V90.096ZM206.175 90.096H202.755V93.426H201.945V90.096H198.525V89.322H201.945V85.974H202.755V89.322H206.175V90.096ZM234.351 90.096H230.931V93.426H230.121V90.096H226.701V89.322H230.121V85.974H230.931V89.322H234.351V90.096ZM262.527 90.096H259.107V93.426H258.297V90.096H254.877V89.322H258.297V85.974H259.107V89.322H262.527V90.096ZM290.702 90.096H287.282V93.426H286.472V90.096H283.052V89.322H286.472V85.974H287.282V89.322H290.702V90.096ZM318.878 90.096H315.458V93.426H314.648V90.096H311.228V89.322H314.648V85.974H315.458V89.322H318.878V90.096ZM8.946 102.096H5.526V105.426H4.716V102.096H1.296V101.322H4.716V97.974H5.526V101.322H8.946V102.096ZM37.1216 102.096H33.7016V105.426H32.8916V102.096H29.4716V101.322H32.8916V97.974H33.7016V101.322H37.1216V102.096ZM65.2972 102.096H61.8772V105.426H61.0673V102.096H57.6472V101.322H61.0673V97.974H61.8772V101.322H65.2972V102.096ZM93.4729 102.096H90.0529V105.426H89.2429V102.096H85.8229V101.322H89.2429V97.974H90.0529V101.322H93.4729V102.096ZM121.648 102.096H118.228V105.426H117.418V102.096H113.998V101.322H117.418V97.974H118.228V101.322H121.648V102.096ZM149.824 102.096H146.404V105.426H145.594V102.096H142.174V101.322H145.594V97.974H146.404V101.322H149.824V102.096ZM178 102.096H174.58V105.426H173.77V102.096H170.35V101.322H173.77V97.974H174.58V101.322H178V102.096ZM206.175 102.096H202.755V105.426H201.945V102.096H198.525V101.322H201.945V97.974H202.755V101.322H206.175V102.096ZM234.351 102.096H230.931V105.426H230.121V102.096H226.701V101.322H230.121V97.974H230.931V101.322H234.351V102.096ZM262.527 102.096H259.107V105.426H258.297V102.096H254.877V101.322H258.297V97.974H259.107V101.322H262.527V102.096ZM290.702 102.096H287.282V105.426H286.472V102.096H283.052V101.322H286.472V97.974H287.282V101.322H290.702V102.096ZM318.878 102.096H315.458V105.426H314.648V102.096H311.228V101.322H314.648V97.974H315.458V101.322H318.878V102.096ZM8.946 114.096H5.526V117.426H4.716V114.096H1.296V113.322H4.716V109.974H5.526V113.322H8.946V114.096ZM37.1216 114.096H33.7016V117.426H32.8916V114.096H29.4716V113.322H32.8916V109.974H33.7016V113.322H37.1216V114.096ZM65.2972 114.096H61.8772V117.426H61.0673V114.096H57.6472V113.322H61.0673V109.974H61.8772V113.322H65.2972V114.096ZM93.4729 114.096H90.0529V117.426H89.2429V114.096H85.8229V113.322H89.2429V109.974H90.0529V113.322H93.4729V114.096ZM121.648 114.096H118.228V117.426H117.418V114.096H113.998V113.322H117.418V109.974H118.228V113.322H121.648V114.096ZM149.824 114.096H146.404V117.426H145.594V114.096H142.174V113.322H145.594V109.974H146.404V113.322H149.824V114.096ZM178 114.096H174.58V117.426H173.77V114.096H170.35V113.322H173.77V109.974H174.58V113.322H178V114.096ZM206.175 114.096H202.755V117.426H201.945V114.096H198.525V113.322H201.945V109.974H202.755V113.322H206.175V114.096ZM234.351 114.096H230.931V117.426H230.121V114.096H226.701V113.322H230.121V109.974H230.931V113.322H234.351V114.096ZM262.527 114.096H259.107V117.426H258.297V114.096H254.877V113.322H258.297V109.974H259.107V113.322H262.527V114.096ZM290.702 114.096H287.282V117.426H286.472V114.096H283.052V113.322H286.472V109.974H287.282V113.322H290.702V114.096ZM318.878 114.096H315.458V117.426H314.648V114.096H311.228V113.322H314.648V109.974H315.458V113.322H318.878V114.096ZM8.946 126.096H5.526V129.426H4.716V126.096H1.296V125.322H4.716V121.974H5.526V125.322H8.946V126.096ZM37.1216 126.096H33.7016V129.426H32.8916V126.096H29.4716V125.322H32.8916V121.974H33.7016V125.322H37.1216V126.096ZM65.2972 126.096H61.8772V129.426H61.0673V126.096H57.6472V125.322H61.0673V121.974H61.8772V125.322H65.2972V126.096ZM93.4729 126.096H90.0529V129.426H89.2429V126.096H85.8229V125.322H89.2429V121.974H90.0529V125.322H93.4729V126.096ZM121.648 126.096H118.228V129.426H117.418V126.096H113.998V125.322H117.418V121.974H118.228V125.322H121.648V126.096ZM149.824 126.096H146.404V129.426H145.594V126.096H142.174V125.322H145.594V121.974H146.404V125.322H149.824V126.096ZM178 126.096H174.58V129.426H173.77V126.096H170.35V125.322H173.77V121.974H174.58V125.322H178V126.096ZM206.175 126.096H202.755V129.426H201.945V126.096H198.525V125.322H201.945V121.974H202.755V125.322H206.175V126.096ZM234.351 126.096H230.931V129.426H230.121V126.096H226.701V125.322H230.121V121.974H230.931V125.322H234.351V126.096ZM262.527 126.096H259.107V129.426H258.297V126.096H254.877V125.322H258.297V121.974H259.107V125.322H262.527V126.096ZM290.702 126.096H287.282V129.426H286.472V126.096H283.052V125.322H286.472V121.974H287.282V125.322H290.702V126.096ZM318.878 126.096H315.458V129.426H314.648V126.096H311.228V125.322H314.648V121.974H315.458V125.322H318.878V126.096ZM8.946 138.096H5.526V141.426H4.716V138.096H1.296V137.322H4.716V133.974H5.526V137.322H8.946V138.096ZM37.1216 138.096H33.7016V141.426H32.8916V138.096H29.4716V137.322H32.8916V133.974H33.7016V137.322H37.1216V138.096ZM65.2972 138.096H61.8772V141.426H61.0673V138.096H57.6472V137.322H61.0673V133.974H61.8772V137.322H65.2972V138.096ZM93.4729 138.096H90.0529V141.426H89.2429V138.096H85.8229V137.322H89.2429V133.974H90.0529V137.322H93.4729V138.096ZM121.648 138.096H118.228V141.426H117.418V138.096H113.998V137.322H117.418V133.974H118.228V137.322H121.648V138.096ZM149.824 138.096H146.404V141.426H145.594V138.096H142.174V137.322H145.594V133.974H146.404V137.322H149.824V138.096ZM178 138.096H174.58V141.426H173.77V138.096H170.35V137.322H173.77V133.974H174.58V137.322H178V138.096ZM206.175 138.096H202.755V141.426H201.945V138.096H198.525V137.322H201.945V133.974H202.755V137.322H206.175V138.096ZM234.351 138.096H230.931V141.426H230.121V138.096H226.701V137.322H230.121V133.974H230.931V137.322H234.351V138.096ZM262.527 138.096H259.107V141.426H258.297V138.096H254.877V137.322H258.297V133.974H259.107V137.322H262.527V138.096ZM290.702 138.096H287.282V141.426H286.472V138.096H283.052V137.322H286.472V133.974H287.282V137.322H290.702V138.096ZM318.878 138.096H315.458V141.426H314.648V138.096H311.228V137.322H314.648V133.974H315.458V137.322H318.878V138.096ZM8.946 150.096H5.526V153.426H4.716V150.096H1.296V149.322H4.716V145.974H5.526V149.322H8.946V150.096ZM37.1216 150.096H33.7016V153.426H32.8916V150.096H29.4716V149.322H32.8916V145.974H33.7016V149.322H37.1216V150.096ZM65.2972 150.096H61.8772V153.426H61.0673V150.096H57.6472V149.322H61.0673V145.974H61.8772V149.322H65.2972V150.096ZM93.4729 150.096H90.0529V153.426H89.2429V150.096H85.8229V149.322H89.2429V145.974H90.0529V149.322H93.4729V150.096ZM121.648 150.096H118.228V153.426H117.418V150.096H113.998V149.322H117.418V145.974H118.228V149.322H121.648V150.096ZM149.824 150.096H146.404V153.426H145.594V150.096H142.174V149.322H145.594V145.974H146.404V149.322H149.824V150.096ZM178 150.096H174.58V153.426H173.77V150.096H170.35V149.322H173.77V145.974H174.58V149.322H178V150.096ZM206.175 150.096H202.755V153.426H201.945V150.096H198.525V149.322H201.945V145.974H202.755V149.322H206.175V150.096ZM234.351 150.096H230.931V153.426H230.121V150.096H226.701V149.322H230.121V145.974H230.931V149.322H234.351V150.096ZM262.527 150.096H259.107V153.426H258.297V150.096H254.877V149.322H258.297V145.974H259.107V149.322H262.527V150.096ZM290.702 150.096H287.282V153.426H286.472V150.096H283.052V149.322H286.472V145.974H287.282V149.322H290.702V150.096ZM318.878 150.096H315.458V153.426H314.648V150.096H311.228V149.322H314.648V145.974H315.458V149.322H318.878V150.096ZM8.946 162.096H5.526V165.426H4.716V162.096H1.296V161.322H4.716V157.974H5.526V161.322H8.946V162.096ZM37.1216 162.096H33.7016V165.426H32.8916V162.096H29.4716V161.322H32.8916V157.974H33.7016V161.322H37.1216V162.096ZM65.2972 162.096H61.8772V165.426H61.0673V162.096H57.6472V161.322H61.0673V157.974H61.8772V161.322H65.2972V162.096ZM93.4729 162.096H90.0529V165.426H89.2429V162.096H85.8229V161.322H89.2429V157.974H90.0529V161.322H93.4729V162.096ZM121.648 162.096H118.228V165.426H117.418V162.096H113.998V161.322H117.418V157.974H118.228V161.322H121.648V162.096ZM149.824 162.096H146.404V165.426H145.594V162.096H142.174V161.322H145.594V157.974H146.404V161.322H149.824V162.096ZM178 162.096H174.58V165.426H173.77V162.096H170.35V161.322H173.77V157.974H174.58V161.322H178V162.096ZM206.175 162.096H202.755V165.426H201.945V162.096H198.525V161.322H201.945V157.974H202.755V161.322H206.175V162.096ZM234.351 162.096H230.931V165.426H230.121V162.096H226.701V161.322H230.121V157.974H230.931V161.322H234.351V162.096ZM262.527 162.096H259.107V165.426H258.297V162.096H254.877V161.322H258.297V157.974H259.107V161.322H262.527V162.096ZM290.702 162.096H287.282V165.426H286.472V162.096H283.052V161.322H286.472V157.974H287.282V161.322H290.702V162.096ZM318.878 162.096H315.458V165.426H314.648V162.096H311.228V161.322H314.648V157.974H315.458V161.322H318.878V162.096ZM8.946 174.096H5.526V177.426H4.716V174.096H1.296V173.322H4.716V169.974H5.526V173.322H8.946V174.096ZM37.1216 174.096H33.7016V177.426H32.8916V174.096H29.4716V173.322H32.8916V169.974H33.7016V173.322H37.1216V174.096ZM65.2972 174.096H61.8772V177.426H61.0673V174.096H57.6472V173.322H61.0673V169.974H61.8772V173.322H65.2972V174.096ZM93.4729 174.096H90.0529V177.426H89.2429V174.096H85.8229V173.322H89.2429V169.974H90.0529V173.322H93.4729V174.096ZM121.648 174.096H118.228V177.426H117.418V174.096H113.998V173.322H117.418V169.974H118.228V173.322H121.648V174.096ZM149.824 174.096H146.404V177.426H145.594V174.096H142.174V173.322H145.594V169.974H146.404V173.322H149.824V174.096ZM178 174.096H174.58V177.426H173.77V174.096H170.35V173.322H173.77V169.974H174.58V173.322H178V174.096ZM206.175 174.096H202.755V177.426H201.945V174.096H198.525V173.322H201.945V169.974H202.755V173.322H206.175V174.096ZM234.351 174.096H230.931V177.426H230.121V174.096H226.701V173.322H230.121V169.974H230.931V173.322H234.351V174.096ZM262.527 174.096H259.107V177.426H258.297V174.096H254.877V173.322H258.297V169.974H259.107V173.322H262.527V174.096ZM290.702 174.096H287.282V177.426H286.472V174.096H283.052V173.322H286.472V169.974H287.282V173.322H290.702V174.096ZM318.878 174.096H315.458V177.426H314.648V174.096H311.228V173.322H314.648V169.974H315.458V173.322H318.878V174.096ZM8.946 186.096H5.526V189.426H4.716V186.096H1.296V185.322H4.716V181.974H5.526V185.322H8.946V186.096ZM37.1216 186.096H33.7016V189.426H32.8916V186.096H29.4716V185.322H32.8916V181.974H33.7016V185.322H37.1216V186.096ZM65.2972 186.096H61.8772V189.426H61.0673V186.096H57.6472V185.322H61.0673V181.974H61.8772V185.322H65.2972V186.096ZM93.4729 186.096H90.0529V189.426H89.2429V186.096H85.8229V185.322H89.2429V181.974H90.0529V185.322H93.4729V186.096ZM121.648 186.096H118.228V189.426H117.418V186.096H113.998V185.322H117.418V181.974H118.228V185.322H121.648V186.096ZM149.824 186.096H146.404V189.426H145.594V186.096H142.174V185.322H145.594V181.974H146.404V185.322H149.824V186.096ZM178 186.096H174.58V189.426H173.77V186.096H170.35V185.322H173.77V181.974H174.58V185.322H178V186.096ZM206.175 186.096H202.755V189.426H201.945V186.096H198.525V185.322H201.945V181.974H202.755V185.322H206.175V186.096ZM234.351 186.096H230.931V189.426H230.121V186.096H226.701V185.322H230.121V181.974H230.931V185.322H234.351V186.096ZM262.527 186.096H259.107V189.426H258.297V186.096H254.877V185.322H258.297V181.974H259.107V185.322H262.527V186.096ZM290.702 186.096H287.282V189.426H286.472V186.096H283.052V185.322H286.472V181.974H287.282V185.322H290.702V186.096ZM318.878 186.096H315.458V189.426H314.648V186.096H311.228V185.322H314.648V181.974H315.458V185.322H318.878V186.096ZM8.946 198.096H5.526V201.426H4.716V198.096H1.296V197.322H4.716V193.974H5.526V197.322H8.946V198.096ZM37.1216 198.096H33.7016V201.426H32.8916V198.096H29.4716V197.322H32.8916V193.974H33.7016V197.322H37.1216V198.096ZM65.2972 198.096H61.8772V201.426H61.0673V198.096H57.6472V197.322H61.0673V193.974H61.8772V197.322H65.2972V198.096ZM93.4729 198.096H90.0529V201.426H89.2429V198.096H85.8229V197.322H89.2429V193.974H90.0529V197.322H93.4729V198.096ZM121.648 198.096H118.228V201.426H117.418V198.096H113.998V197.322H117.418V193.974H118.228V197.322H121.648V198.096ZM149.824 198.096H146.404V201.426H145.594V198.096H142.174V197.322H145.594V193.974H146.404V197.322H149.824V198.096ZM178 198.096H174.58V201.426H173.77V198.096H170.35V197.322H173.77V193.974H174.58V197.322H178V198.096ZM206.175 198.096H202.755V201.426H201.945V198.096H198.525V197.322H201.945V193.974H202.755V197.322H206.175V198.096ZM234.351 198.096H230.931V201.426H230.121V198.096H226.701V197.322H230.121V193.974H230.931V197.322H234.351V198.096ZM262.527 198.096H259.107V201.426H258.297V198.096H254.877V197.322H258.297V193.974H259.107V197.322H262.527V198.096ZM290.702 198.096H287.282V201.426H286.472V198.096H283.052V197.322H286.472V193.974H287.282V197.322H290.702V198.096ZM318.878 198.096H315.458V201.426H314.648V198.096H311.228V197.322H314.648V193.974H315.458V197.322H318.878V198.096ZM8.946 210.096H5.526V213.426H4.716V210.096H1.296V209.322H4.716V205.974H5.526V209.322H8.946V210.096ZM37.1216 210.096H33.7016V213.426H32.8916V210.096H29.4716V209.322H32.8916V205.974H33.7016V209.322H37.1216V210.096ZM65.2972 210.096H61.8772V213.426H61.0673V210.096H57.6472V209.322H61.0673V205.974H61.8772V209.322H65.2972V210.096ZM93.4729 210.096H90.0529V213.426H89.2429V210.096H85.8229V209.322H89.2429V205.974H90.0529V209.322H93.4729V210.096ZM121.648 210.096H118.228V213.426H117.418V210.096H113.998V209.322H117.418V205.974H118.228V209.322H121.648V210.096ZM149.824 210.096H146.404V213.426H145.594V210.096H142.174V209.322H145.594V205.974H146.404V209.322H149.824V210.096ZM178 210.096H174.58V213.426H173.77V210.096H170.35V209.322H173.77V205.974H174.58V209.322H178V210.096ZM206.175 210.096H202.755V213.426H201.945V210.096H198.525V209.322H201.945V205.974H202.755V209.322H206.175V210.096ZM234.351 210.096H230.931V213.426H230.121V210.096H226.701V209.322H230.121V205.974H230.931V209.322H234.351V210.096ZM262.527 210.096H259.107V213.426H258.297V210.096H254.877V209.322H258.297V205.974H259.107V209.322H262.527V210.096ZM290.702 210.096H287.282V213.426H286.472V210.096H283.052V209.322H286.472V205.974H287.282V209.322H290.702V210.096ZM318.878 210.096H315.458V213.426H314.648V210.096H311.228V209.322H314.648V205.974H315.458V209.322H318.878V210.096ZM8.946 222.096H5.526V225.426H4.716V222.096H1.296V221.322H4.716V217.974H5.526V221.322H8.946V222.096ZM37.1216 222.096H33.7016V225.426H32.8916V222.096H29.4716V221.322H32.8916V217.974H33.7016V221.322H37.1216V222.096ZM65.2972 222.096H61.8772V225.426H61.0673V222.096H57.6472V221.322H61.0673V217.974H61.8772V221.322H65.2972V222.096ZM93.4729 222.096H90.0529V225.426H89.2429V222.096H85.8229V221.322H89.2429V217.974H90.0529V221.322H93.4729V222.096ZM121.648 222.096H118.228V225.426H117.418V222.096H113.998V221.322H117.418V217.974H118.228V221.322H121.648V222.096ZM149.824 222.096H146.404V225.426H145.594V222.096H142.174V221.322H145.594V217.974H146.404V221.322H149.824V222.096ZM178 222.096H174.58V225.426H173.77V222.096H170.35V221.322H173.77V217.974H174.58V221.322H178V222.096ZM206.175 222.096H202.755V225.426H201.945V222.096H198.525V221.322H201.945V217.974H202.755V221.322H206.175V222.096ZM234.351 222.096H230.931V225.426H230.121V222.096H226.701V221.322H230.121V217.974H230.931V221.322H234.351V222.096ZM262.527 222.096H259.107V225.426H258.297V222.096H254.877V221.322H258.297V217.974H259.107V221.322H262.527V222.096ZM290.702 222.096H287.282V225.426H286.472V222.096H283.052V221.322H286.472V217.974H287.282V221.322H290.702V222.096ZM318.878 222.096H315.458V225.426H314.648V222.096H311.228V221.322H314.648V217.974H315.458V221.322H318.878V222.096ZM8.946 234.096H5.526V237.426H4.716V234.096H1.296V233.322H4.716V229.974H5.526V233.322H8.946V234.096ZM37.1216 234.096H33.7016V237.426H32.8916V234.096H29.4716V233.322H32.8916V229.974H33.7016V233.322H37.1216V234.096ZM65.2972 234.096H61.8772V237.426H61.0673V234.096H57.6472V233.322H61.0673V229.974H61.8772V233.322H65.2972V234.096ZM93.4729 234.096H90.0529V237.426H89.2429V234.096H85.8229V233.322H89.2429V229.974H90.0529V233.322H93.4729V234.096ZM121.648 234.096H118.228V237.426H117.418V234.096H113.998V233.322H117.418V229.974H118.228V233.322H121.648V234.096ZM149.824 234.096H146.404V237.426H145.594V234.096H142.174V233.322H145.594V229.974H146.404V233.322H149.824V234.096ZM178 234.096H174.58V237.426H173.77V234.096H170.35V233.322H173.77V229.974H174.58V233.322H178V234.096ZM206.175 234.096H202.755V237.426H201.945V234.096H198.525V233.322H201.945V229.974H202.755V233.322H206.175V234.096ZM234.351 234.096H230.931V237.426H230.121V234.096H226.701V233.322H230.121V229.974H230.931V233.322H234.351V234.096ZM262.527 234.096H259.107V237.426H258.297V234.096H254.877V233.322H258.297V229.974H259.107V233.322H262.527V234.096ZM290.702 234.096H287.282V237.426H286.472V234.096H283.052V233.322H286.472V229.974H287.282V233.322H290.702V234.096ZM318.878 234.096H315.458V237.426H314.648V234.096H311.228V233.322H314.648V229.974H315.458V233.322H318.878V234.096ZM8.946 246.096H5.526V249.426H4.716V246.096H1.296V245.322H4.716V241.974H5.526V245.322H8.946V246.096ZM37.1216 246.096H33.7016V249.426H32.8916V246.096H29.4716V245.322H32.8916V241.974H33.7016V245.322H37.1216V246.096ZM65.2972 246.096H61.8772V249.426H61.0673V246.096H57.6472V245.322H61.0673V241.974H61.8772V245.322H65.2972V246.096ZM93.4729 246.096H90.0529V249.426H89.2429V246.096H85.8229V245.322H89.2429V241.974H90.0529V245.322H93.4729V246.096ZM121.648 246.096H118.228V249.426H117.418V246.096H113.998V245.322H117.418V241.974H118.228V245.322H121.648V246.096ZM149.824 246.096H146.404V249.426H145.594V246.096H142.174V245.322H145.594V241.974H146.404V245.322H149.824V246.096ZM178 246.096H174.58V249.426H173.77V246.096H170.35V245.322H173.77V241.974H174.58V245.322H178V246.096ZM206.175 246.096H202.755V249.426H201.945V246.096H198.525V245.322H201.945V241.974H202.755V245.322H206.175V246.096ZM234.351 246.096H230.931V249.426H230.121V246.096H226.701V245.322H230.121V241.974H230.931V245.322H234.351V246.096ZM262.527 246.096H259.107V249.426H258.297V246.096H254.877V245.322H258.297V241.974H259.107V245.322H262.527V246.096ZM290.702 246.096H287.282V249.426H286.472V246.096H283.052V245.322H286.472V241.974H287.282V245.322H290.702V246.096ZM318.878 246.096H315.458V249.426H314.648V246.096H311.228V245.322H314.648V241.974H315.458V245.322H318.878V246.096ZM8.946 258.096H5.526V261.426H4.716V258.096H1.296V257.322H4.716V253.974H5.526V257.322H8.946V258.096ZM37.1216 258.096H33.7016V261.426H32.8916V258.096H29.4716V257.322H32.8916V253.974H33.7016V257.322H37.1216V258.096ZM65.2972 258.096H61.8772V261.426H61.0673V258.096H57.6472V257.322H61.0673V253.974H61.8772V257.322H65.2972V258.096ZM93.4729 258.096H90.0529V261.426H89.2429V258.096H85.8229V257.322H89.2429V253.974H90.0529V257.322H93.4729V258.096ZM121.648 258.096H118.228V261.426H117.418V258.096H113.998V257.322H117.418V253.974H118.228V257.322H121.648V258.096ZM149.824 258.096H146.404V261.426H145.594V258.096H142.174V257.322H145.594V253.974H146.404V257.322H149.824V258.096ZM178 258.096H174.58V261.426H173.77V258.096H170.35V257.322H173.77V253.974H174.58V257.322H178V258.096ZM206.175 258.096H202.755V261.426H201.945V258.096H198.525V257.322H201.945V253.974H202.755V257.322H206.175V258.096ZM234.351 258.096H230.931V261.426H230.121V258.096H226.701V257.322H230.121V253.974H230.931V257.322H234.351V258.096ZM262.527 258.096H259.107V261.426H258.297V258.096H254.877V257.322H258.297V253.974H259.107V257.322H262.527V258.096ZM290.702 258.096H287.282V261.426H286.472V258.096H283.052V257.322H286.472V253.974H287.282V257.322H290.702V258.096ZM318.878 258.096H315.458V261.426H314.648V258.096H311.228V257.322H314.648V253.974H315.458V257.322H318.878V258.096ZM8.946 270.096H5.526V273.426H4.716V270.096H1.296V269.322H4.716V265.974H5.526V269.322H8.946V270.096ZM37.1216 270.096H33.7016V273.426H32.8916V270.096H29.4716V269.322H32.8916V265.974H33.7016V269.322H37.1216V270.096ZM65.2972 270.096H61.8772V273.426H61.0673V270.096H57.6472V269.322H61.0673V265.974H61.8772V269.322H65.2972V270.096ZM93.4729 270.096H90.0529V273.426H89.2429V270.096H85.8229V269.322H89.2429V265.974H90.0529V269.322H93.4729V270.096ZM121.648 270.096H118.228V273.426H117.418V270.096H113.998V269.322H117.418V265.974H118.228V269.322H121.648V270.096ZM149.824 270.096H146.404V273.426H145.594V270.096H142.174V269.322H145.594V265.974H146.404V269.322H149.824V270.096ZM178 270.096H174.58V273.426H173.77V270.096H170.35V269.322H173.77V265.974H174.58V269.322H178V270.096ZM206.175 270.096H202.755V273.426H201.945V270.096H198.525V269.322H201.945V265.974H202.755V269.322H206.175V270.096ZM234.351 270.096H230.931V273.426H230.121V270.096H226.701V269.322H230.121V265.974H230.931V269.322H234.351V270.096ZM262.527 270.096H259.107V273.426H258.297V270.096H254.877V269.322H258.297V265.974H259.107V269.322H262.527V270.096ZM290.702 270.096H287.282V273.426H286.472V270.096H283.052V269.322H286.472V265.974H287.282V269.322H290.702V270.096ZM318.878 270.096H315.458V273.426H314.648V270.096H311.228V269.322H314.648V265.974H315.458V269.322H318.878V270.096ZM8.946 282.096H5.526V285.426H4.716V282.096H1.296V281.322H4.716V277.974H5.526V281.322H8.946V282.096ZM37.1216 282.096H33.7016V285.426H32.8916V282.096H29.4716V281.322H32.8916V277.974H33.7016V281.322H37.1216V282.096ZM65.2972 282.096H61.8772V285.426H61.0673V282.096H57.6472V281.322H61.0673V277.974H61.8772V281.322H65.2972V282.096ZM93.4729 282.096H90.0529V285.426H89.2429V282.096H85.8229V281.322H89.2429V277.974H90.0529V281.322H93.4729V282.096ZM121.648 282.096H118.228V285.426H117.418V282.096H113.998V281.322H117.418V277.974H118.228V281.322H121.648V282.096ZM149.824 282.096H146.404V285.426H145.594V282.096H142.174V281.322H145.594V277.974H146.404V281.322H149.824V282.096ZM178 282.096H174.58V285.426H173.77V282.096H170.35V281.322H173.77V277.974H174.58V281.322H178V282.096ZM206.175 282.096H202.755V285.426H201.945V282.096H198.525V281.322H201.945V277.974H202.755V281.322H206.175V282.096ZM234.351 282.096H230.931V285.426H230.121V282.096H226.701V281.322H230.121V277.974H230.931V281.322H234.351V282.096ZM262.527 282.096H259.107V285.426H258.297V282.096H254.877V281.322H258.297V277.974H259.107V281.322H262.527V282.096ZM290.702 282.096H287.282V285.426H286.472V282.096H283.052V281.322H286.472V277.974H287.282V281.322H290.702V282.096ZM318.878 282.096H315.458V285.426H314.648V282.096H311.228V281.322H314.648V277.974H315.458V281.322H318.878V282.096ZM8.946 294.096H5.526V297.426H4.716V294.096H1.296V293.322H4.716V289.974H5.526V293.322H8.946V294.096ZM37.1216 294.096H33.7016V297.426H32.8916V294.096H29.4716V293.322H32.8916V289.974H33.7016V293.322H37.1216V294.096ZM65.2972 294.096H61.8772V297.426H61.0673V294.096H57.6472V293.322H61.0673V289.974H61.8772V293.322H65.2972V294.096ZM93.4729 294.096H90.0529V297.426H89.2429V294.096H85.8229V293.322H89.2429V289.974H90.0529V293.322H93.4729V294.096ZM121.648 294.096H118.228V297.426H117.418V294.096H113.998V293.322H117.418V289.974H118.228V293.322H121.648V294.096ZM149.824 294.096H146.404V297.426H145.594V294.096H142.174V293.322H145.594V289.974H146.404V293.322H149.824V294.096ZM178 294.096H174.58V297.426H173.77V294.096H170.35V293.322H173.77V289.974H174.58V293.322H178V294.096ZM206.175 294.096H202.755V297.426H201.945V294.096H198.525V293.322H201.945V289.974H202.755V293.322H206.175V294.096ZM234.351 294.096H230.931V297.426H230.121V294.096H226.701V293.322H230.121V289.974H230.931V293.322H234.351V294.096ZM262.527 294.096H259.107V297.426H258.297V294.096H254.877V293.322H258.297V289.974H259.107V293.322H262.527V294.096ZM290.702 294.096H287.282V297.426H286.472V294.096H283.052V293.322H286.472V289.974H287.282V293.322H290.702V294.096ZM318.878 294.096H315.458V297.426H314.648V294.096H311.228V293.322H314.648V289.974H315.458V293.322H318.878V294.096ZM8.946 306.096H5.526V309.426H4.716V306.096H1.296V305.322H4.716V301.974H5.526V305.322H8.946V306.096ZM37.1216 306.096H33.7016V309.426H32.8916V306.096H29.4716V305.322H32.8916V301.974H33.7016V305.322H37.1216V306.096ZM65.2972 306.096H61.8772V309.426H61.0673V306.096H57.6472V305.322H61.0673V301.974H61.8772V305.322H65.2972V306.096ZM93.4729 306.096H90.0529V309.426H89.2429V306.096H85.8229V305.322H89.2429V301.974H90.0529V305.322H93.4729V306.096ZM121.648 306.096H118.228V309.426H117.418V306.096H113.998V305.322H117.418V301.974H118.228V305.322H121.648V306.096ZM149.824 306.096H146.404V309.426H145.594V306.096H142.174V305.322H145.594V301.974H146.404V305.322H149.824V306.096ZM178 306.096H174.58V309.426H173.77V306.096H170.35V305.322H173.77V301.974H174.58V305.322H178V306.096ZM206.175 306.096H202.755V309.426H201.945V306.096H198.525V305.322H201.945V301.974H202.755V305.322H206.175V306.096ZM234.351 306.096H230.931V309.426H230.121V306.096H226.701V305.322H230.121V301.974H230.931V305.322H234.351V306.096ZM262.527 306.096H259.107V309.426H258.297V306.096H254.877V305.322H258.297V301.974H259.107V305.322H262.527V306.096ZM290.702 306.096H287.282V309.426H286.472V306.096H283.052V305.322H286.472V301.974H287.282V305.322H290.702V306.096ZM318.878 306.096H315.458V309.426H314.648V306.096H311.228V305.322H314.648V301.974H315.458V305.322H318.878V306.096ZM8.946 318.096H5.526V321.426H4.716V318.096H1.296V317.322H4.716V313.974H5.526V317.322H8.946V318.096ZM37.1216 318.096H33.7016V321.426H32.8916V318.096H29.4716V317.322H32.8916V313.974H33.7016V317.322H37.1216V318.096ZM65.2972 318.096H61.8772V321.426H61.0673V318.096H57.6472V317.322H61.0673V313.974H61.8772V317.322H65.2972V318.096ZM93.4729 318.096H90.0529V321.426H89.2429V318.096H85.8229V317.322H89.2429V313.974H90.0529V317.322H93.4729V318.096ZM121.648 318.096H118.228V321.426H117.418V318.096H113.998V317.322H117.418V313.974H118.228V317.322H121.648V318.096ZM149.824 318.096H146.404V321.426H145.594V318.096H142.174V317.322H145.594V313.974H146.404V317.322H149.824V318.096ZM178 318.096H174.58V321.426H173.77V318.096H170.35V317.322H173.77V313.974H174.58V317.322H178V318.096ZM206.175 318.096H202.755V321.426H201.945V318.096H198.525V317.322H201.945V313.974H202.755V317.322H206.175V318.096ZM234.351 318.096H230.931V321.426H230.121V318.096H226.701V317.322H230.121V313.974H230.931V317.322H234.351V318.096ZM262.527 318.096H259.107V321.426H258.297V318.096H254.877V317.322H258.297V313.974H259.107V317.322H262.527V318.096ZM290.702 318.096H287.282V321.426H286.472V318.096H283.052V317.322H286.472V313.974H287.282V317.322H290.702V318.096ZM318.878 318.096H315.458V321.426H314.648V318.096H311.228V317.322H314.648V313.974H315.458V317.322H318.878V318.096ZM8.946 330.096H5.526V333.426H4.716V330.096H1.296V329.322H4.716V325.974H5.526V329.322H8.946V330.096ZM37.1216 330.096H33.7016V333.426H32.8916V330.096H29.4716V329.322H32.8916V325.974H33.7016V329.322H37.1216V330.096ZM65.2972 330.096H61.8772V333.426H61.0673V330.096H57.6472V329.322H61.0673V325.974H61.8772V329.322H65.2972V330.096ZM93.4729 330.096H90.0529V333.426H89.2429V330.096H85.8229V329.322H89.2429V325.974H90.0529V329.322H93.4729V330.096ZM121.648 330.096H118.228V333.426H117.418V330.096H113.998V329.322H117.418V325.974H118.228V329.322H121.648V330.096ZM149.824 330.096H146.404V333.426H145.594V330.096H142.174V329.322H145.594V325.974H146.404V329.322H149.824V330.096ZM178 330.096H174.58V333.426H173.77V330.096H170.35V329.322H173.77V325.974H174.58V329.322H178V330.096ZM206.175 330.096H202.755V333.426H201.945V330.096H198.525V329.322H201.945V325.974H202.755V329.322H206.175V330.096ZM234.351 330.096H230.931V333.426H230.121V330.096H226.701V329.322H230.121V325.974H230.931V329.322H234.351V330.096ZM262.527 330.096H259.107V333.426H258.297V330.096H254.877V329.322H258.297V325.974H259.107V329.322H262.527V330.096ZM290.702 330.096H287.282V333.426H286.472V330.096H283.052V329.322H286.472V325.974H287.282V329.322H290.702V330.096ZM318.878 330.096H315.458V333.426H314.648V330.096H311.228V329.322H314.648V325.974H315.458V329.322H318.878V330.096ZM8.946 342.096H5.526V345.426H4.716V342.096H1.296V341.322H4.716V337.974H5.526V341.322H8.946V342.096ZM37.1216 342.096H33.7016V345.426H32.8916V342.096H29.4716V341.322H32.8916V337.974H33.7016V341.322H37.1216V342.096ZM65.2972 342.096H61.8772V345.426H61.0673V342.096H57.6472V341.322H61.0673V337.974H61.8772V341.322H65.2972V342.096ZM93.4729 342.096H90.0529V345.426H89.2429V342.096H85.8229V341.322H89.2429V337.974H90.0529V341.322H93.4729V342.096ZM121.648 342.096H118.228V345.426H117.418V342.096H113.998V341.322H117.418V337.974H118.228V341.322H121.648V342.096ZM149.824 342.096H146.404V345.426H145.594V342.096H142.174V341.322H145.594V337.974H146.404V341.322H149.824V342.096ZM178 342.096H174.58V345.426H173.77V342.096H170.35V341.322H173.77V337.974H174.58V341.322H178V342.096ZM206.175 342.096H202.755V345.426H201.945V342.096H198.525V341.322H201.945V337.974H202.755V341.322H206.175V342.096ZM234.351 342.096H230.931V345.426H230.121V342.096H226.701V341.322H230.121V337.974H230.931V341.322H234.351V342.096ZM262.527 342.096H259.107V345.426H258.297V342.096H254.877V341.322H258.297V337.974H259.107V341.322H262.527V342.096ZM290.702 342.096H287.282V345.426H286.472V342.096H283.052V341.322H286.472V337.974H287.282V341.322H290.702V342.096ZM318.878 342.096H315.458V345.426H314.648V342.096H311.228V341.322H314.648V337.974H315.458V341.322H318.878V342.096ZM8.946 354.096H5.526V357.426H4.716V354.096H1.296V353.322H4.716V349.974H5.526V353.322H8.946V354.096ZM37.1216 354.096H33.7016V357.426H32.8916V354.096H29.4716V353.322H32.8916V349.974H33.7016V353.322H37.1216V354.096ZM65.2972 354.096H61.8772V357.426H61.0673V354.096H57.6472V353.322H61.0673V349.974H61.8772V353.322H65.2972V354.096ZM93.4729 354.096H90.0529V357.426H89.2429V354.096H85.8229V353.322H89.2429V349.974H90.0529V353.322H93.4729V354.096ZM121.648 354.096H118.228V357.426H117.418V354.096H113.998V353.322H117.418V349.974H118.228V353.322H121.648V354.096ZM149.824 354.096H146.404V357.426H145.594V354.096H142.174V353.322H145.594V349.974H146.404V353.322H149.824V354.096ZM178 354.096H174.58V357.426H173.77V354.096H170.35V353.322H173.77V349.974H174.58V353.322H178V354.096ZM206.175 354.096H202.755V357.426H201.945V354.096H198.525V353.322H201.945V349.974H202.755V353.322H206.175V354.096ZM234.351 354.096H230.931V357.426H230.121V354.096H226.701V353.322H230.121V349.974H230.931V353.322H234.351V354.096ZM262.527 354.096H259.107V357.426H258.297V354.096H254.877V353.322H258.297V349.974H259.107V353.322H262.527V354.096ZM290.702 354.096H287.282V357.426H286.472V354.096H283.052V353.322H286.472V349.974H287.282V353.322H290.702V354.096ZM318.878 354.096H315.458V357.426H314.648V354.096H311.228V353.322H314.648V349.974H315.458V353.322H318.878V354.096ZM8.946 366.096H5.526V369.426H4.716V366.096H1.296V365.322H4.716V361.974H5.526V365.322H8.946V366.096ZM37.1216 366.096H33.7016V369.426H32.8916V366.096H29.4716V365.322H32.8916V361.974H33.7016V365.322H37.1216V366.096ZM65.2972 366.096H61.8772V369.426H61.0673V366.096H57.6472V365.322H61.0673V361.974H61.8772V365.322H65.2972V366.096ZM93.4729 366.096H90.0529V369.426H89.2429V366.096H85.8229V365.322H89.2429V361.974H90.0529V365.322H93.4729V366.096ZM121.648 366.096H118.228V369.426H117.418V366.096H113.998V365.322H117.418V361.974H118.228V365.322H121.648V366.096ZM149.824 366.096H146.404V369.426H145.594V366.096H142.174V365.322H145.594V361.974H146.404V365.322H149.824V366.096ZM178 366.096H174.58V369.426H173.77V366.096H170.35V365.322H173.77V361.974H174.58V365.322H178V366.096ZM206.175 366.096H202.755V369.426H201.945V366.096H198.525V365.322H201.945V361.974H202.755V365.322H206.175V366.096ZM234.351 366.096H230.931V369.426H230.121V366.096H226.701V365.322H230.121V361.974H230.931V365.322H234.351V366.096ZM262.527 366.096H259.107V369.426H258.297V366.096H254.877V365.322H258.297V361.974H259.107V365.322H262.527V366.096ZM290.702 366.096H287.282V369.426H286.472V366.096H283.052V365.322H286.472V361.974H287.282V365.322H290.702V366.096ZM318.878 366.096H315.458V369.426H314.648V366.096H311.228V365.322H314.648V361.974H315.458V365.322H318.878V366.096ZM8.946 378.096H5.526V381.426H4.716V378.096H1.296V377.322H4.716V373.974H5.526V377.322H8.946V378.096ZM37.1216 378.096H33.7016V381.426H32.8916V378.096H29.4716V377.322H32.8916V373.974H33.7016V377.322H37.1216V378.096ZM65.2972 378.096H61.8772V381.426H61.0673V378.096H57.6472V377.322H61.0673V373.974H61.8772V377.322H65.2972V378.096ZM93.4729 378.096H90.0529V381.426H89.2429V378.096H85.8229V377.322H89.2429V373.974H90.0529V377.322H93.4729V378.096ZM121.648 378.096H118.228V381.426H117.418V378.096H113.998V377.322H117.418V373.974H118.228V377.322H121.648V378.096ZM149.824 378.096H146.404V381.426H145.594V378.096H142.174V377.322H145.594V373.974H146.404V377.322H149.824V378.096ZM178 378.096H174.58V381.426H173.77V378.096H170.35V377.322H173.77V373.974H174.58V377.322H178V378.096ZM206.175 378.096H202.755V381.426H201.945V378.096H198.525V377.322H201.945V373.974H202.755V377.322H206.175V378.096ZM234.351 378.096H230.931V381.426H230.121V378.096H226.701V377.322H230.121V373.974H230.931V377.322H234.351V378.096ZM262.527 378.096H259.107V381.426H258.297V378.096H254.877V377.322H258.297V373.974H259.107V377.322H262.527V378.096ZM290.702 378.096H287.282V381.426H286.472V378.096H283.052V377.322H286.472V373.974H287.282V377.322H290.702V378.096ZM318.878 378.096H315.458V381.426H314.648V378.096H311.228V377.322H314.648V373.974H315.458V377.322H318.878V378.096ZM8.946 390.096H5.526V393.426H4.716V390.096H1.296V389.322H4.716V385.974H5.526V389.322H8.946V390.096ZM37.1216 390.096H33.7016V393.426H32.8916V390.096H29.4716V389.322H32.8916V385.974H33.7016V389.322H37.1216V390.096ZM65.2972 390.096H61.8772V393.426H61.0673V390.096H57.6472V389.322H61.0673V385.974H61.8772V389.322H65.2972V390.096ZM93.4729 390.096H90.0529V393.426H89.2429V390.096H85.8229V389.322H89.2429V385.974H90.0529V389.322H93.4729V390.096ZM121.648 390.096H118.228V393.426H117.418V390.096H113.998V389.322H117.418V385.974H118.228V389.322H121.648V390.096ZM149.824 390.096H146.404V393.426H145.594V390.096H142.174V389.322H145.594V385.974H146.404V389.322H149.824V390.096ZM178 390.096H174.58V393.426H173.77V390.096H170.35V389.322H173.77V385.974H174.58V389.322H178V390.096ZM206.175 390.096H202.755V393.426H201.945V390.096H198.525V389.322H201.945V385.974H202.755V389.322H206.175V390.096ZM234.351 390.096H230.931V393.426H230.121V390.096H226.701V389.322H230.121V385.974H230.931V389.322H234.351V390.096ZM262.527 390.096H259.107V393.426H258.297V390.096H254.877V389.322H258.297V385.974H259.107V389.322H262.527V390.096ZM290.702 390.096H287.282V393.426H286.472V390.096H283.052V389.322H286.472V385.974H287.282V389.322H290.702V390.096ZM318.878 390.096H315.458V393.426H314.648V390.096H311.228V389.322H314.648V385.974H315.458V389.322H318.878V390.096ZM8.946 402.096H5.526V405.426H4.716V402.096H1.296V401.322H4.716V397.974H5.526V401.322H8.946V402.096ZM37.1216 402.096H33.7016V405.426H32.8916V402.096H29.4716V401.322H32.8916V397.974H33.7016V401.322H37.1216V402.096ZM65.2972 402.096H61.8772V405.426H61.0673V402.096H57.6472V401.322H61.0673V397.974H61.8772V401.322H65.2972V402.096ZM93.4729 402.096H90.0529V405.426H89.2429V402.096H85.8229V401.322H89.2429V397.974H90.0529V401.322H93.4729V402.096ZM121.648 402.096H118.228V405.426H117.418V402.096H113.998V401.322H117.418V397.974H118.228V401.322H121.648V402.096ZM149.824 402.096H146.404V405.426H145.594V402.096H142.174V401.322H145.594V397.974H146.404V401.322H149.824V402.096ZM178 402.096H174.58V405.426H173.77V402.096H170.35V401.322H173.77V397.974H174.58V401.322H178V402.096ZM206.175 402.096H202.755V405.426H201.945V402.096H198.525V401.322H201.945V397.974H202.755V401.322H206.175V402.096ZM234.351 402.096H230.931V405.426H230.121V402.096H226.701V401.322H230.121V397.974H230.931V401.322H234.351V402.096ZM262.527 402.096H259.107V405.426H258.297V402.096H254.877V401.322H258.297V397.974H259.107V401.322H262.527V402.096ZM290.702 402.096H287.282V405.426H286.472V402.096H283.052V401.322H286.472V397.974H287.282V401.322H290.702V402.096ZM318.878 402.096H315.458V405.426H314.648V402.096H311.228V401.322H314.648V397.974H315.458V401.322H318.878V402.096ZM8.946 414.096H5.526V417.426H4.716V414.096H1.296V413.322H4.716V409.974H5.526V413.322H8.946V414.096ZM37.1216 414.096H33.7016V417.426H32.8916V414.096H29.4716V413.322H32.8916V409.974H33.7016V413.322H37.1216V414.096ZM65.2972 414.096H61.8772V417.426H61.0673V414.096H57.6472V413.322H61.0673V409.974H61.8772V413.322H65.2972V414.096ZM93.4729 414.096H90.0529V417.426H89.2429V414.096H85.8229V413.322H89.2429V409.974H90.0529V413.322H93.4729V414.096ZM121.648 414.096H118.228V417.426H117.418V414.096H113.998V413.322H117.418V409.974H118.228V413.322H121.648V414.096ZM149.824 414.096H146.404V417.426H145.594V414.096H142.174V413.322H145.594V409.974H146.404V413.322H149.824V414.096ZM178 414.096H174.58V417.426H173.77V414.096H170.35V413.322H173.77V409.974H174.58V413.322H178V414.096ZM206.175 414.096H202.755V417.426H201.945V414.096H198.525V413.322H201.945V409.974H202.755V413.322H206.175V414.096ZM234.351 414.096H230.931V417.426H230.121V414.096H226.701V413.322H230.121V409.974H230.931V413.322H234.351V414.096ZM262.527 414.096H259.107V417.426H258.297V414.096H254.877V413.322H258.297V409.974H259.107V413.322H262.527V414.096ZM290.702 414.096H287.282V417.426H286.472V414.096H283.052V413.322H286.472V409.974H287.282V413.322H290.702V414.096ZM318.878 414.096H315.458V417.426H314.648V414.096H311.228V413.322H314.648V409.974H315.458V413.322H318.878V414.096ZM8.946 426.096H5.526V429.426H4.716V426.096H1.296V425.322H4.716V421.974H5.526V425.322H8.946V426.096ZM37.1216 426.096H33.7016V429.426H32.8916V426.096H29.4716V425.322H32.8916V421.974H33.7016V425.322H37.1216V426.096ZM65.2972 426.096H61.8772V429.426H61.0673V426.096H57.6472V425.322H61.0673V421.974H61.8772V425.322H65.2972V426.096ZM93.4729 426.096H90.0529V429.426H89.2429V426.096H85.8229V425.322H89.2429V421.974H90.0529V425.322H93.4729V426.096ZM121.648 426.096H118.228V429.426H117.418V426.096H113.998V425.322H117.418V421.974H118.228V425.322H121.648V426.096ZM149.824 426.096H146.404V429.426H145.594V426.096H142.174V425.322H145.594V421.974H146.404V425.322H149.824V426.096ZM178 426.096H174.58V429.426H173.77V426.096H170.35V425.322H173.77V421.974H174.58V425.322H178V426.096ZM206.175 426.096H202.755V429.426H201.945V426.096H198.525V425.322H201.945V421.974H202.755V425.322H206.175V426.096ZM234.351 426.096H230.931V429.426H230.121V426.096H226.701V425.322H230.121V421.974H230.931V425.322H234.351V426.096ZM262.527 426.096H259.107V429.426H258.297V426.096H254.877V425.322H258.297V421.974H259.107V425.322H262.527V426.096ZM290.702 426.096H287.282V429.426H286.472V426.096H283.052V425.322H286.472V421.974H287.282V425.322H290.702V426.096ZM318.878 426.096H315.458V429.426H314.648V426.096H311.228V425.322H314.648V421.974H315.458V425.322H318.878V426.096ZM8.946 438.096H5.526V441.426H4.716V438.096H1.296V437.322H4.716V433.974H5.526V437.322H8.946V438.096ZM37.1216 438.096H33.7016V441.426H32.8916V438.096H29.4716V437.322H32.8916V433.974H33.7016V437.322H37.1216V438.096ZM65.2972 438.096H61.8772V441.426H61.0673V438.096H57.6472V437.322H61.0673V433.974H61.8772V437.322H65.2972V438.096ZM93.4729 438.096H90.0529V441.426H89.2429V438.096H85.8229V437.322H89.2429V433.974H90.0529V437.322H93.4729V438.096ZM121.648 438.096H118.228V441.426H117.418V438.096H113.998V437.322H117.418V433.974H118.228V437.322H121.648V438.096ZM149.824 438.096H146.404V441.426H145.594V438.096H142.174V437.322H145.594V433.974H146.404V437.322H149.824V438.096ZM178 438.096H174.58V441.426H173.77V438.096H170.35V437.322H173.77V433.974H174.58V437.322H178V438.096ZM206.175 438.096H202.755V441.426H201.945V438.096H198.525V437.322H201.945V433.974H202.755V437.322H206.175V438.096ZM234.351 438.096H230.931V441.426H230.121V438.096H226.701V437.322H230.121V433.974H230.931V437.322H234.351V438.096ZM262.527 438.096H259.107V441.426H258.297V438.096H254.877V437.322H258.297V433.974H259.107V437.322H262.527V438.096ZM290.702 438.096H287.282V441.426H286.472V438.096H283.052V437.322H286.472V433.974H287.282V437.322H290.702V438.096ZM318.878 438.096H315.458V441.426H314.648V438.096H311.228V437.322H314.648V433.974H315.458V437.322H318.878V438.096ZM8.946 450.096H5.526V453.426H4.716V450.096H1.296V449.322H4.716V445.974H5.526V449.322H8.946V450.096ZM37.1216 450.096H33.7016V453.426H32.8916V450.096H29.4716V449.322H32.8916V445.974H33.7016V449.322H37.1216V450.096ZM65.2972 450.096H61.8772V453.426H61.0673V450.096H57.6472V449.322H61.0673V445.974H61.8772V449.322H65.2972V450.096ZM93.4729 450.096H90.0529V453.426H89.2429V450.096H85.8229V449.322H89.2429V445.974H90.0529V449.322H93.4729V450.096ZM121.648 450.096H118.228V453.426H117.418V450.096H113.998V449.322H117.418V445.974H118.228V449.322H121.648V450.096ZM149.824 450.096H146.404V453.426H145.594V450.096H142.174V449.322H145.594V445.974H146.404V449.322H149.824V450.096ZM178 450.096H174.58V453.426H173.77V450.096H170.35V449.322H173.77V445.974H174.58V449.322H178V450.096ZM206.175 450.096H202.755V453.426H201.945V450.096H198.525V449.322H201.945V445.974H202.755V449.322H206.175V450.096ZM234.351 450.096H230.931V453.426H230.121V450.096H226.701V449.322H230.121V445.974H230.931V449.322H234.351V450.096ZM262.527 450.096H259.107V453.426H258.297V450.096H254.877V449.322H258.297V445.974H259.107V449.322H262.527V450.096ZM290.702 450.096H287.282V453.426H286.472V450.096H283.052V449.322H286.472V445.974H287.282V449.322H290.702V450.096ZM318.878 450.096H315.458V453.426H314.648V450.096H311.228V449.322H314.648V445.974H315.458V449.322H318.878V450.096ZM8.946 462.096H5.526V465.426H4.716V462.096H1.296V461.322H4.716V457.974H5.526V461.322H8.946V462.096ZM37.1216 462.096H33.7016V465.426H32.8916V462.096H29.4716V461.322H32.8916V457.974H33.7016V461.322H37.1216V462.096ZM65.2972 462.096H61.8772V465.426H61.0673V462.096H57.6472V461.322H61.0673V457.974H61.8772V461.322H65.2972V462.096ZM93.4729 462.096H90.0529V465.426H89.2429V462.096H85.8229V461.322H89.2429V457.974H90.0529V461.322H93.4729V462.096ZM121.648 462.096H118.228V465.426H117.418V462.096H113.998V461.322H117.418V457.974H118.228V461.322H121.648V462.096ZM149.824 462.096H146.404V465.426H145.594V462.096H142.174V461.322H145.594V457.974H146.404V461.322H149.824V462.096ZM178 462.096H174.58V465.426H173.77V462.096H170.35V461.322H173.77V457.974H174.58V461.322H178V462.096ZM206.175 462.096H202.755V465.426H201.945V462.096H198.525V461.322H201.945V457.974H202.755V461.322H206.175V462.096ZM234.351 462.096H230.931V465.426H230.121V462.096H226.701V461.322H230.121V457.974H230.931V461.322H234.351V462.096ZM262.527 462.096H259.107V465.426H258.297V462.096H254.877V461.322H258.297V457.974H259.107V461.322H262.527V462.096ZM290.702 462.096H287.282V465.426H286.472V462.096H283.052V461.322H286.472V457.974H287.282V461.322H290.702V462.096ZM318.878 462.096H315.458V465.426H314.648V462.096H311.228V461.322H314.648V457.974H315.458V461.322H318.878V462.096ZM8.946 474.096H5.526V477.426H4.716V474.096H1.296V473.322H4.716V469.974H5.526V473.322H8.946V474.096ZM37.1216 474.096H33.7016V477.426H32.8916V474.096H29.4716V473.322H32.8916V469.974H33.7016V473.322H37.1216V474.096ZM65.2972 474.096H61.8772V477.426H61.0673V474.096H57.6472V473.322H61.0673V469.974H61.8772V473.322H65.2972V474.096ZM93.4729 474.096H90.0529V477.426H89.2429V474.096H85.8229V473.322H89.2429V469.974H90.0529V473.322H93.4729V474.096ZM121.648 474.096H118.228V477.426H117.418V474.096H113.998V473.322H117.418V469.974H118.228V473.322H121.648V474.096ZM149.824 474.096H146.404V477.426H145.594V474.096H142.174V473.322H145.594V469.974H146.404V473.322H149.824V474.096ZM178 474.096H174.58V477.426H173.77V474.096H170.35V473.322H173.77V469.974H174.58V473.322H178V474.096ZM206.175 474.096H202.755V477.426H201.945V474.096H198.525V473.322H201.945V469.974H202.755V473.322H206.175V474.096Z" fill="#4A4A4A"/>
</mask>
<g mask="url(#mask0)">
<rect x="78.9193" y="22.5484" width="187.903" height="187.903" rx="93" fill="#C4C4C4"/>
</g>
</svg>
